<mxfile host="app.diagrams.net" agent="Mozilla/5.0 (Windows NT 10.0; Win64; x64) AppleWebKit/537.36 (KHTML, like Gecko) Chrome/123.0.0.0 Safari/537.36 OPR/109.0.0.0 (Edition GX-CN)" version="24.7.7">
  <diagram name="PÃ¡gina-1" id="DyEAIXAHH8bcF158Yb8Y">
    <mxGraphModel dx="1702" dy="452" grid="1" gridSize="10" guides="1" tooltips="1" connect="1" arrows="1" fold="1" page="1" pageScale="1" pageWidth="827" pageHeight="1169" math="0" shadow="0">
      <root>
        <mxCell id="0" />
        <mxCell id="1" parent="0" />
        <mxCell id="8vSkRG_rDn1Uolplx-d0-3" value="InstrumentoMusical" style="swimlane;fontStyle=0;childLayout=stackLayout;horizontal=1;startSize=30;horizontalStack=0;resizeParent=1;resizeParentMax=0;resizeLast=0;collapsible=1;marginBottom=0;whiteSpace=wrap;html=1;" parent="1" vertex="1">
          <mxGeometry x="-6" y="300" width="210" height="120" as="geometry" />
        </mxCell>
        <mxCell id="8vSkRG_rDn1Uolplx-d0-4" value="+Nombre: string" style="text;strokeColor=none;fillColor=none;align=left;verticalAlign=middle;spacingLeft=4;spacingRight=4;overflow=hidden;points=[[0,0.5],[1,0.5]];portConstraint=eastwest;rotatable=0;whiteSpace=wrap;html=1;" parent="8vSkRG_rDn1Uolplx-d0-3" vertex="1">
          <mxGeometry y="30" width="210" height="30" as="geometry" />
        </mxCell>
        <mxCell id="8vSkRG_rDn1Uolplx-d0-5" value="+Tipo: string" style="text;strokeColor=none;fillColor=none;align=left;verticalAlign=middle;spacingLeft=4;spacingRight=4;overflow=hidden;points=[[0,0.5],[1,0.5]];portConstraint=eastwest;rotatable=0;whiteSpace=wrap;html=1;" parent="8vSkRG_rDn1Uolplx-d0-3" vertex="1">
          <mxGeometry y="60" width="210" height="30" as="geometry" />
        </mxCell>
        <mxCell id="8vSkRG_rDn1Uolplx-d0-6" value="+MostrarInformacion(): void" style="text;strokeColor=default;fillColor=none;align=left;verticalAlign=middle;spacingLeft=4;spacingRight=4;overflow=hidden;points=[[0,0.5],[1,0.5]];portConstraint=eastwest;rotatable=0;whiteSpace=wrap;html=1;" parent="8vSkRG_rDn1Uolplx-d0-3" vertex="1">
          <mxGeometry y="90" width="210" height="30" as="geometry" />
        </mxCell>
        <mxCell id="8vSkRG_rDn1Uolplx-d0-16" value="InstrumentoMusicalCuerda" style="swimlane;fontStyle=0;childLayout=stackLayout;horizontal=1;startSize=30;horizontalStack=0;resizeParent=1;resizeParentMax=0;resizeLast=0;collapsible=1;marginBottom=0;whiteSpace=wrap;html=1;" parent="1" vertex="1">
          <mxGeometry x="-276" y="500" width="210" height="90" as="geometry" />
        </mxCell>
        <mxCell id="8vSkRG_rDn1Uolplx-d0-17" value="+NumeroCuerdas: int" style="text;strokeColor=none;fillColor=none;align=left;verticalAlign=middle;spacingLeft=4;spacingRight=4;overflow=hidden;points=[[0,0.5],[1,0.5]];portConstraint=eastwest;rotatable=0;whiteSpace=wrap;html=1;" parent="8vSkRG_rDn1Uolplx-d0-16" vertex="1">
          <mxGeometry y="30" width="210" height="30" as="geometry" />
        </mxCell>
        <mxCell id="8vSkRG_rDn1Uolplx-d0-18" value="+MostrarInformacionCuerda(): void" style="text;strokeColor=none;fillColor=none;align=left;verticalAlign=middle;spacingLeft=4;spacingRight=4;overflow=hidden;points=[[0,0.5],[1,0.5]];portConstraint=eastwest;rotatable=0;whiteSpace=wrap;html=1;" parent="8vSkRG_rDn1Uolplx-d0-16" vertex="1">
          <mxGeometry y="60" width="210" height="30" as="geometry" />
        </mxCell>
        <mxCell id="8vSkRG_rDn1Uolplx-d0-19" value="Item 3" style="text;strokeColor=none;fillColor=none;align=left;verticalAlign=middle;spacingLeft=4;spacingRight=4;overflow=hidden;points=[[0,0.5],[1,0.5]];portConstraint=eastwest;rotatable=0;whiteSpace=wrap;html=1;" parent="8vSkRG_rDn1Uolplx-d0-16" vertex="1">
          <mxGeometry y="90" width="210" as="geometry" />
        </mxCell>
        <mxCell id="8vSkRG_rDn1Uolplx-d0-21" style="edgeStyle=orthogonalEdgeStyle;rounded=0;orthogonalLoop=1;jettySize=auto;html=1;entryX=0.18;entryY=0.984;entryDx=0;entryDy=0;entryPerimeter=0;" parent="1" source="8vSkRG_rDn1Uolplx-d0-16" target="8vSkRG_rDn1Uolplx-d0-6" edge="1">
          <mxGeometry relative="1" as="geometry" />
        </mxCell>
        <mxCell id="8vSkRG_rDn1Uolplx-d0-22" value="InstrumentoMusicalViento" style="swimlane;fontStyle=0;childLayout=stackLayout;horizontal=1;startSize=30;horizontalStack=0;resizeParent=1;resizeParentMax=0;resizeLast=0;collapsible=1;marginBottom=0;whiteSpace=wrap;html=1;" parent="1" vertex="1">
          <mxGeometry x="194" y="500" width="220" height="90" as="geometry" />
        </mxCell>
        <mxCell id="8vSkRG_rDn1Uolplx-d0-23" value="+Material: string" style="text;strokeColor=none;fillColor=none;align=left;verticalAlign=middle;spacingLeft=4;spacingRight=4;overflow=hidden;points=[[0,0.5],[1,0.5]];portConstraint=eastwest;rotatable=0;whiteSpace=wrap;html=1;" parent="8vSkRG_rDn1Uolplx-d0-22" vertex="1">
          <mxGeometry y="30" width="220" height="30" as="geometry" />
        </mxCell>
        <mxCell id="8vSkRG_rDn1Uolplx-d0-24" value="+MostrarInformacionViento(): void" style="text;strokeColor=none;fillColor=none;align=left;verticalAlign=middle;spacingLeft=4;spacingRight=4;overflow=hidden;points=[[0,0.5],[1,0.5]];portConstraint=eastwest;rotatable=0;whiteSpace=wrap;html=1;" parent="8vSkRG_rDn1Uolplx-d0-22" vertex="1">
          <mxGeometry y="60" width="220" height="30" as="geometry" />
        </mxCell>
        <mxCell id="8vSkRG_rDn1Uolplx-d0-25" value="Item 3" style="text;strokeColor=none;fillColor=none;align=left;verticalAlign=middle;spacingLeft=4;spacingRight=4;overflow=hidden;points=[[0,0.5],[1,0.5]];portConstraint=eastwest;rotatable=0;whiteSpace=wrap;html=1;" parent="8vSkRG_rDn1Uolplx-d0-22" vertex="1">
          <mxGeometry y="90" width="220" as="geometry" />
        </mxCell>
        <mxCell id="8vSkRG_rDn1Uolplx-d0-26" style="edgeStyle=orthogonalEdgeStyle;rounded=0;orthogonalLoop=1;jettySize=auto;html=1;entryX=0.924;entryY=1.004;entryDx=0;entryDy=0;entryPerimeter=0;" parent="1" source="8vSkRG_rDn1Uolplx-d0-22" target="8vSkRG_rDn1Uolplx-d0-6" edge="1">
          <mxGeometry relative="1" as="geometry" />
        </mxCell>
        <mxCell id="8vSkRG_rDn1Uolplx-d0-27" value="Guitarra" style="swimlane;fontStyle=0;childLayout=stackLayout;horizontal=1;startSize=30;horizontalStack=0;resizeParent=1;resizeParentMax=0;resizeLast=0;collapsible=1;marginBottom=0;whiteSpace=wrap;html=1;" parent="1" vertex="1">
          <mxGeometry x="-436" y="660" width="210" height="90" as="geometry" />
        </mxCell>
        <mxCell id="8vSkRG_rDn1Uolplx-d0-28" value="+NumeroCuerdas: int" style="text;strokeColor=none;fillColor=none;align=left;verticalAlign=middle;spacingLeft=4;spacingRight=4;overflow=hidden;points=[[0,0.5],[1,0.5]];portConstraint=eastwest;rotatable=0;whiteSpace=wrap;html=1;" parent="8vSkRG_rDn1Uolplx-d0-27" vertex="1">
          <mxGeometry y="30" width="210" height="30" as="geometry" />
        </mxCell>
        <mxCell id="8vSkRG_rDn1Uolplx-d0-29" value="+MostrarInformacionCuerda(): void" style="text;strokeColor=none;fillColor=none;align=left;verticalAlign=middle;spacingLeft=4;spacingRight=4;overflow=hidden;points=[[0,0.5],[1,0.5]];portConstraint=eastwest;rotatable=0;whiteSpace=wrap;html=1;" parent="8vSkRG_rDn1Uolplx-d0-27" vertex="1">
          <mxGeometry y="60" width="210" height="30" as="geometry" />
        </mxCell>
        <mxCell id="8vSkRG_rDn1Uolplx-d0-30" value="Item 3" style="text;strokeColor=none;fillColor=none;align=left;verticalAlign=middle;spacingLeft=4;spacingRight=4;overflow=hidden;points=[[0,0.5],[1,0.5]];portConstraint=eastwest;rotatable=0;whiteSpace=wrap;html=1;" parent="8vSkRG_rDn1Uolplx-d0-27" vertex="1">
          <mxGeometry y="90" width="210" as="geometry" />
        </mxCell>
        <mxCell id="8vSkRG_rDn1Uolplx-d0-31" value="Piano" style="swimlane;fontStyle=0;childLayout=stackLayout;horizontal=1;startSize=30;horizontalStack=0;resizeParent=1;resizeParentMax=0;resizeLast=0;collapsible=1;marginBottom=0;whiteSpace=wrap;html=1;" parent="1" vertex="1">
          <mxGeometry x="-106" y="660" width="210" height="90" as="geometry" />
        </mxCell>
        <mxCell id="8vSkRG_rDn1Uolplx-d0-32" value="+NumeroCuerdas: int" style="text;strokeColor=none;fillColor=none;align=left;verticalAlign=middle;spacingLeft=4;spacingRight=4;overflow=hidden;points=[[0,0.5],[1,0.5]];portConstraint=eastwest;rotatable=0;whiteSpace=wrap;html=1;" parent="8vSkRG_rDn1Uolplx-d0-31" vertex="1">
          <mxGeometry y="30" width="210" height="30" as="geometry" />
        </mxCell>
        <mxCell id="8vSkRG_rDn1Uolplx-d0-33" value="+MostrarInformacionCuerda(): void" style="text;strokeColor=none;fillColor=none;align=left;verticalAlign=middle;spacingLeft=4;spacingRight=4;overflow=hidden;points=[[0,0.5],[1,0.5]];portConstraint=eastwest;rotatable=0;whiteSpace=wrap;html=1;" parent="8vSkRG_rDn1Uolplx-d0-31" vertex="1">
          <mxGeometry y="60" width="210" height="30" as="geometry" />
        </mxCell>
        <mxCell id="8vSkRG_rDn1Uolplx-d0-34" value="Item 3" style="text;strokeColor=none;fillColor=none;align=left;verticalAlign=middle;spacingLeft=4;spacingRight=4;overflow=hidden;points=[[0,0.5],[1,0.5]];portConstraint=eastwest;rotatable=0;whiteSpace=wrap;html=1;" parent="8vSkRG_rDn1Uolplx-d0-31" vertex="1">
          <mxGeometry y="90" width="210" as="geometry" />
        </mxCell>
        <mxCell id="8vSkRG_rDn1Uolplx-d0-38" style="edgeStyle=orthogonalEdgeStyle;rounded=0;orthogonalLoop=1;jettySize=auto;html=1;entryX=0.483;entryY=0.978;entryDx=0;entryDy=0;entryPerimeter=0;" parent="1" source="8vSkRG_rDn1Uolplx-d0-28" target="8vSkRG_rDn1Uolplx-d0-18" edge="1">
          <mxGeometry relative="1" as="geometry" />
        </mxCell>
        <mxCell id="8vSkRG_rDn1Uolplx-d0-40" style="edgeStyle=orthogonalEdgeStyle;rounded=0;orthogonalLoop=1;jettySize=auto;html=1;entryX=0.479;entryY=0.978;entryDx=0;entryDy=0;entryPerimeter=0;" parent="1" source="8vSkRG_rDn1Uolplx-d0-32" target="8vSkRG_rDn1Uolplx-d0-18" edge="1">
          <mxGeometry relative="1" as="geometry" />
        </mxCell>
        <mxCell id="8vSkRG_rDn1Uolplx-d0-41" value="Flauta" style="swimlane;fontStyle=0;childLayout=stackLayout;horizontal=1;startSize=30;horizontalStack=0;resizeParent=1;resizeParentMax=0;resizeLast=0;collapsible=1;marginBottom=0;whiteSpace=wrap;html=1;" parent="1" vertex="1">
          <mxGeometry x="194" y="670" width="220" height="60" as="geometry" />
        </mxCell>
        <mxCell id="8vSkRG_rDn1Uolplx-d0-42" value="+Material: string" style="text;strokeColor=none;fillColor=none;align=left;verticalAlign=middle;spacingLeft=4;spacingRight=4;overflow=hidden;points=[[0,0.5],[1,0.5]];portConstraint=eastwest;rotatable=0;whiteSpace=wrap;html=1;" parent="8vSkRG_rDn1Uolplx-d0-41" vertex="1">
          <mxGeometry y="30" width="220" as="geometry" />
        </mxCell>
        <mxCell id="8vSkRG_rDn1Uolplx-d0-43" value="+MostrarInformacionFlauta(): void" style="text;strokeColor=none;fillColor=none;align=left;verticalAlign=middle;spacingLeft=4;spacingRight=4;overflow=hidden;points=[[0,0.5],[1,0.5]];portConstraint=eastwest;rotatable=0;whiteSpace=wrap;html=1;" parent="8vSkRG_rDn1Uolplx-d0-41" vertex="1">
          <mxGeometry y="30" width="220" height="30" as="geometry" />
        </mxCell>
        <mxCell id="8vSkRG_rDn1Uolplx-d0-44" value="Item 3" style="text;strokeColor=none;fillColor=none;align=left;verticalAlign=middle;spacingLeft=4;spacingRight=4;overflow=hidden;points=[[0,0.5],[1,0.5]];portConstraint=eastwest;rotatable=0;whiteSpace=wrap;html=1;" parent="8vSkRG_rDn1Uolplx-d0-41" vertex="1">
          <mxGeometry y="60" width="220" as="geometry" />
        </mxCell>
        <mxCell id="8vSkRG_rDn1Uolplx-d0-45" style="edgeStyle=orthogonalEdgeStyle;rounded=0;orthogonalLoop=1;jettySize=auto;html=1;entryX=0.496;entryY=0.994;entryDx=0;entryDy=0;entryPerimeter=0;" parent="1" source="8vSkRG_rDn1Uolplx-d0-41" target="8vSkRG_rDn1Uolplx-d0-24" edge="1">
          <mxGeometry relative="1" as="geometry">
            <Array as="points">
              <mxPoint x="304" y="590" />
            </Array>
          </mxGeometry>
        </mxCell>
      </root>
    </mxGraphModel>
  </diagram>
</mxfile>
